Coordinates
version=1
nRows=8
nColumns=63
inDegrees=yes

Units are S.I. units (second, meters, Newtons, ...)
If the header above contains a line with 'inDegrees', this indicates whether rotational values are in degrees (yes) or radians (no).

endheader
time	pelvis_tilt	pelvis_list	pelvis_rotation	pelvis_tx	pelvis_ty	pelvis_tz	hip_flexion_r	hip_adduction_r	hip_rotation_r	knee_angle_r	knee_angle_r_beta	ankle_angle_r	subtalar_angle_r	mtp_angle_r	hip_flexion_l	hip_adduction_l	hip_rotation_l	knee_angle_l	knee_angle_l_beta	ankle_angle_l	subtalar_angle_l	mtp_angle_l	L5_S1_Flex_Ext	L5_S1_Lat_Bending	L5_S1_axial_rotation	L4_L5_Flex_Ext	L4_L5_Lat_Bending	L4_L5_axial_rotation	L3_L4_Flex_Ext	L3_L4_Lat_Bending	L3_L4_axial_rotation	L2_L3_Flex_Ext	L2_L3_Lat_Bending	L2_L3_axial_rotation	L1_L2_Flex_Ext	L1_L2_Lat_Bending	L1_L2_axial_rotation	L1_T12_Flex_Ext	L1_T12_Lat_Bending	L1_T12_axial_rotation	Abs_r3	Abs_r2	Abs_r1	Abs_t1	Abs_t2	neck_flexion	neck_bending	neck_rotation	arm_flex_r	arm_add_r	arm_rot_r	elbow_flex_r	pro_sup_r	wrist_flex_r	wrist_dev_r	arm_flex_l	arm_add_l	arm_rot_l	elbow_flex_l	pro_sup_l	wrist_flex_l	wrist_dev_l
5.389831	2.699734	-9.168161	88.404433	0.272127	1.059374	0.294911	5.835638	-0.045507	-16.025694	13.654899	0.238323	27.146091	17.552186	0.000000	3.447035	-0.815455	4.479984	5.729605	0.100000	21.225400	-15.960691	0.000000	0.039663	0.137950	0.250201	0.073658	0.183474	0.265838	0.065162	0.335413	0.265838	0.045331	0.335413	0.218925	0.036831	0.281309	0.203288	0.022663	0.213685	0.187650	0.283309	1.560523	1.391540	0.000000	0.000000	23.659107	-2.737171	-4.332542	5.586112	-15.838650	88.450783	17.049734	17.586593	-2.276607	-8.396112	10.832150	-9.017571	158.773503	9.826098	6.166523	-14.181809	-16.992119
5.406780	2.761851	-9.131583	88.178116	0.272114	1.059465	0.294613	5.902846	-0.004237	-15.880577	13.833251	0.241436	27.239184	17.542320	0.000000	3.491855	-0.874958	4.168741	5.976655	0.104312	21.351814	-15.920880	0.000000	0.038618	0.152548	0.302826	0.071717	0.202889	0.321752	0.063445	0.370905	0.321752	0.044136	0.370905	0.264973	0.035861	0.311076	0.246046	0.022066	0.236297	0.227119	0.275844	1.725654	1.684226	0.000000	0.000000	23.600891	-2.842104	-4.225688	5.644816	-15.832307	89.395972	16.860351	16.982291	-2.354308	-8.206068	10.812942	-8.979869	158.297371	9.874279	6.148345	-14.139158	-17.182352
5.423729	2.822716	-9.089724	87.928603	0.272145	1.059579	0.294267	5.933382	0.055786	-15.658013	13.923698	0.243014	27.324659	17.525493	0.000000	3.524804	-0.935104	3.815116	6.205625	0.108309	21.488255	-15.849005	0.000000	0.037482	0.166103	0.361513	0.069607	0.220917	0.384107	0.061579	0.403862	0.384107	0.042838	0.403862	0.316324	0.034806	0.338717	0.293729	0.021417	0.257293	0.271135	0.267729	1.878988	2.010626	0.000000	0.000000	23.531709	-2.945257	-4.175330	5.764290	-15.780119	90.976030	16.591066	15.995717	-2.413799	-7.992163	10.771621	-8.947810	157.837094	9.870603	6.058174	-14.026602	-17.396402
5.440678	2.877126	-9.043060	87.659589	0.272232	1.059698	0.293885	5.922445	0.130848	-15.359418	13.918654	0.242926	27.400199	17.503722	0.000000	3.537022	-0.989686	3.462533	6.395108	0.111616	21.624576	-15.782147	0.000000	0.036255	0.177580	0.424789	0.067330	0.236181	0.451339	0.059564	0.431767	0.451339	0.041436	0.431767	0.371691	0.033667	0.362120	0.345141	0.020716	0.275071	0.318592	0.258968	2.008815	2.362551	0.000000	0.000000	23.463858	-3.016245	-4.171522	5.893168	-15.711364	92.674155	16.315912	15.020173	-2.512525	-7.734435	10.726752	-8.947723	157.108920	9.884602	6.113897	-13.885536	-17.622322
5.457627	2.924783	-8.996497	87.378556	0.272374	1.059821	0.293481	5.875877	0.219415	-14.994078	13.822033	0.241240	27.462945	17.481078	0.000000	3.532432	-1.039246	3.104734	6.540856	0.114159	21.766634	-15.694913	0.000000	0.035253	0.187153	0.488928	0.065468	0.248913	0.519486	0.057917	0.455044	0.519486	0.040290	0.455044	0.427812	0.032736	0.381642	0.397254	0.020143	0.289900	0.366696	0.251807	2.117112	2.719270	0.000000	0.000000	23.405448	-3.052493	-4.193650	6.048912	-15.621355	94.645914	16.021656	13.904089	-2.605233	-7.492978	10.662856	-8.885883	157.199576	9.730332	5.455029	-13.563944	-17.867827
5.474576	2.961244	-8.947464	87.100214	0.272571	1.059932	0.293065	5.796205	0.312277	-14.596610	13.651568	0.238265	27.528922	17.478681	0.000000	3.500801	-1.079279	2.767250	6.627882	0.115678	21.911792	-15.591171	0.000000	0.034268	0.193823	0.550452	0.063638	0.257784	0.584855	0.056298	0.471261	0.584855	0.039164	0.471261	0.481645	0.031821	0.395243	0.447242	0.019580	0.300231	0.412839	0.244769	2.192562	3.061447	0.000000	0.000000	23.350464	-3.035715	-4.238793	6.220894	-15.510652	96.785205	15.712624	12.656291	-2.646632	-7.303325	10.619955	-8.861382	157.045012	9.642852	4.930811	-13.232502	-18.087447
5.491525	2.980292	-8.900186	86.825528	0.272839	1.059997	0.292662	5.696425	0.401037	-14.161043	13.427006	0.234345	27.611515	17.481364	0.000000	3.444903	-1.104512	2.476332	6.655511	0.116161	22.054358	-15.504955	0.000000	0.033383	0.196678	0.609809	0.061995	0.261582	0.647922	0.054845	0.478204	0.647922	0.038153	0.478204	0.533583	0.030999	0.401066	0.495470	0.019075	0.304655	0.457357	0.238450	2.224865	3.391576	0.000000	0.000000	23.315160	-2.965411	-4.314547	6.340483	-15.419755	98.367529	15.484354	11.864691	-2.719257	-7.114169	10.591762	-8.983684	155.708674	9.787248	5.442942	-13.029662	-18.171714
5.508475	2.995596	-8.857155	86.580013	0.273115	1.060029	0.292272	5.575150	0.493365	-13.731922	13.154102	0.229582	27.695926	17.497672	0.000000	3.368942	-1.127263	2.225180	6.629344	0.115704	22.199188	-15.400564	0.000000	0.032852	0.198267	0.661637	0.061010	0.263695	0.702990	0.053973	0.482065	0.702990	0.037547	0.482065	0.578933	0.030506	0.404305	0.537580	0.018772	0.307115	0.496228	0.234660	2.242831	3.679828	0.000000	0.000000	23.297364	-2.853070	-4.380383	6.434635	-15.337167	99.739178	15.294908	11.241399	-2.750160	-6.960647	10.577964	-9.087062	154.685187	9.904660	5.657727	-12.761821	-18.242544
